<svg width="893" height="564" viewBox="0 0 893 564" fill="none" xmlns="http://www.w3.org/2000/svg">
<line x1="435.144" y1="48.8703" x2="435.144" y2="277.801" stroke="black"/>
<line x1="435.144" y1="277.801" x2="435.144" y2="506.731" stroke="black"/>
<line x1="434.644" y1="277.301" x2="666.678" y2="277.301" stroke="black"/>
<line x1="202.609" y1="277.301" x2="434.644" y2="277.301" stroke="black"/>
<line y1="-0.5" x2="230.488" y2="-0.5" transform="matrix(0.711852 -0.702329 0.711852 0.702329 271.292 439.883)" stroke="black"/>
<line y1="-0.5" x2="230.474" y2="-0.5" transform="matrix(-0.707868 -0.706344 0.715813 -0.698292 598.717 439.679)" stroke="black"/>
<line y1="-0.5" x2="230.496" y2="-0.5" transform="matrix(-0.713861 0.700287 -0.709837 -0.704366 599.187 115.718)" stroke="black"/>
<line y1="-0.5" x2="230.779" y2="-0.5" transform="matrix(0.711852 0.702329 -0.711852 0.702329 270.363 115.049)" stroke="black"/>
<line y1="-0.5" x2="177.879" y2="-0.5" transform="matrix(0.92877 -0.370656 0.379337 0.925259 270.363 114.802)" stroke="black"/>
<line y1="-0.5" x2="176.156" y2="-0.5" transform="matrix(0.927315 -0.374281 0.383018 0.923741 435.572 506.731)" stroke="black"/>
<line y1="-0.5" x2="177.707" y2="-0.5" transform="matrix(0.924443 0.38132 -0.390164 0.920745 434.644 48.8703)" stroke="black"/>
<line y1="-0.5" x2="176.85" y2="-0.5" transform="matrix(0.923678 0.383169 -0.392041 0.919948 270.363 438.968)" stroke="black"/>
<line y1="-0.5" x2="176.519" y2="-0.5" transform="matrix(-0.383834 0.923402 -0.926991 -0.375084 270.363 113.887)" stroke="black"/>
<line y1="-0.5" x2="177.722" y2="-0.5" transform="matrix(-0.386459 0.922307 -0.92594 -0.37767 666.678 276.885)" stroke="black"/>
<line y1="-0.5" x2="174.83" y2="-0.5" transform="matrix(0.387543 0.921852 -0.925504 0.378738 598.924 116.634)" stroke="black"/>
<line y1="-0.5" x2="174.83" y2="-0.5" transform="matrix(0.387543 0.921852 -0.925504 0.378738 203.538 276.885)" stroke="black"/>
<line y1="-0.5" x2="36.1261" y2="-0.5" transform="matrix(0.924897 0.380218 -0.389046 0.921219 434.644 232.015)" stroke="black"/>
<line y1="-1.5" x2="35.788" y2="-1.5" transform="matrix(0.933636 0.358223 -0.366704 0.930338 402.159 309.851)" stroke="#FF0000" stroke-width="3"/>
<line y1="-0.5" x2="71.3947" y2="-0.5" transform="matrix(0.923006 0.384785 -0.393681 0.919247 434.644 186.229)" stroke="black"/>
<line y1="-0.5" x2="107.521" y2="-0.5" transform="matrix(0.923644 0.383252 -0.392125 0.919912 434.644 139.527)" stroke="black"/>
<line y1="-0.5" x2="106.832" y2="-0.5" transform="matrix(0.929597 0.368579 -0.377226 0.926121 336.261 375.783)" stroke="black"/>
<line y1="-0.5" x2="143.647" y2="-0.5" transform="matrix(0.92396 0.382489 -0.391351 0.920242 434.644 93.7407)" stroke="black"/>
<line y1="-0.5" x2="142.956" y2="-0.5" transform="matrix(0.928423 0.371525 -0.380219 0.924896 302.848 407.833)" stroke="black"/>
<line y1="-0.5" x2="35.7852" y2="-0.5" transform="matrix(0.389046 0.921219 -0.924897 0.380218 467.128 244.835)" stroke="black"/>
<line y1="-0.5" x2="70.7277" y2="-0.5" transform="matrix(0.393681 0.919247 -0.923006 0.384785 499.613 212.784)" stroke="black"/>
<line y1="-0.5" x2="141.093" y2="-0.5" transform="matrix(0.388115 0.921611 -0.925273 0.379301 566.439 147.768)" stroke="black"/>
<line y1="-0.5" x2="142.782" y2="-0.5" transform="matrix(-0.383522 0.923532 -0.927115 -0.374778 621.199 276.885)" stroke="black"/>
<line y1="-0.5" x2="107.356" y2="-0.5" transform="matrix(-0.389046 0.921219 -0.924897 -0.380218 574.792 276.885)" stroke="black"/>
<line y1="-0.5" x2="70.7277" y2="-0.5" transform="matrix(-0.393681 0.919247 -0.923006 -0.384785 527.458 276.885)" stroke="black"/>
<line y1="-0.5" x2="35.7852" y2="-0.5" transform="matrix(-0.389046 0.921219 -0.924897 -0.380218 481.051 276.885)" stroke="black"/>
<line y1="-0.5" x2="142.286" y2="-0.5" transform="matrix(0.932796 -0.360404 0.36892 0.929461 434.644 460.029)" stroke="black"/>
<line y1="-0.5" x2="106.832" y2="-0.5" transform="matrix(0.929597 -0.368579 0.377226 0.926121 434.644 415.159)" stroke="black"/>
<line y1="-0.5" x2="70.1874" y2="-0.5" transform="matrix(0.92566 -0.378357 0.387157 0.922014 435.572 368.457)" stroke="black"/>
<line y1="-0.5" x2="35.788" y2="-0.5" transform="matrix(0.933636 -0.358223 0.366704 0.930338 434.644 322.671)" stroke="black"/>
<line y1="-0.5" x2="141.581" y2="-0.5" transform="matrix(0.380219 0.924896 -0.928423 0.371525 249.944 276.885)" stroke="black"/>
<line y1="-0.5" x2="106.647" y2="-0.5" transform="matrix(0.374224 0.927338 -0.930763 0.365624 296.351 276.885)" stroke="black"/>
<line y1="-0.5" x2="70.0177" y2="-0.5" transform="matrix(0.371161 0.928568 -0.931941 0.362609 343.686 276.885)" stroke="black"/>
<line y1="-1.5" x2="35.1047" y2="-1.5" transform="matrix(0.343709 0.939076 -0.941999 0.335616 390.093 276.885)" stroke="#FF0000" stroke-width="3"/>
<line y1="-0.5" x2="141.231" y2="-0.5" transform="matrix(-0.374591 0.92719 -0.930621 -0.365984 302.848 145.937)" stroke="black"/>
<line y1="-0.5" x2="105.798" y2="-0.5" transform="matrix(-0.377226 0.926121 -0.929597 -0.368579 336.261 178.903)" stroke="black"/>
<line y1="-0.5" x2="70.0177" y2="-0.5" transform="matrix(-0.371161 0.928568 -0.931941 -0.362609 369.674 211.869)" stroke="black"/>
<line y1="-1.5" x2="34.2462" y2="-1.5" transform="matrix(-0.352325 0.935878 -0.938939 -0.344083 402.159 244.835)" stroke="#FF0000" stroke-width="3"/>
<line y1="-0.5" x2="142.956" y2="-0.5" transform="matrix(0.928423 -0.371525 0.380219 0.924896 302.848 146.853)" stroke="black"/>
<line y1="-0.5" x2="107.173" y2="-0.5" transform="matrix(0.92664 -0.375951 0.384713 0.923036 336.261 179.818)" stroke="black"/>
<line y1="-0.5" x2="71.0474" y2="-0.5" transform="matrix(0.927518 -0.373777 0.382506 0.923953 369.674 212.784)" stroke="black"/>
<line y1="-1.5" x2="36.1261" y2="-1.5" transform="matrix(0.924897 -0.380218 0.389046 0.921219 402.159 245.75)" stroke="#FF0000" stroke-width="3"/>
<path d="M359.832 27H357.24L349.488 18.312V27H347.328V9.864H349.488V18.168L357.048 9.864H359.496L352.056 18.192L359.832 27ZM373.06 20.544C373.06 21.616 372.916 22.568 372.628 23.4C372.356 24.216 371.956 24.912 371.428 25.488C370.916 26.064 370.284 26.504 369.532 26.808C368.796 27.096 367.972 27.24 367.06 27.24C366.212 27.24 365.428 27.096 364.708 26.808C363.988 26.504 363.364 26.064 362.836 25.488C362.308 24.912 361.892 24.216 361.588 23.4C361.3 22.568 361.156 21.616 361.156 20.544C361.156 19.12 361.396 17.92 361.876 16.944C362.356 15.952 363.044 15.2 363.94 14.688C364.836 14.16 365.9 13.896 367.132 13.896C368.3 13.896 369.324 14.16 370.204 14.688C371.1 15.2 371.796 15.952 372.292 16.944C372.804 17.92 373.06 19.12 373.06 20.544ZM363.34 20.544C363.34 21.552 363.468 22.432 363.724 23.184C363.996 23.92 364.412 24.488 364.972 24.888C365.532 25.288 366.244 25.488 367.108 25.488C367.972 25.488 368.684 25.288 369.244 24.888C369.804 24.488 370.212 23.92 370.468 23.184C370.74 22.432 370.876 21.552 370.876 20.544C370.876 19.52 370.74 18.648 370.468 17.928C370.196 17.208 369.78 16.656 369.22 16.272C368.676 15.872 367.964 15.672 367.084 15.672C365.772 15.672 364.82 16.104 364.228 16.968C363.636 17.832 363.34 19.024 363.34 20.544ZM390.207 14.136V27H388.311V18.792C388.311 18.456 388.319 18.104 388.335 17.736C388.367 17.368 388.399 17.008 388.431 16.656H388.359L384.159 27H382.383L378.303 16.656H378.231C378.263 17.008 378.279 17.368 378.279 17.736C378.295 18.104 378.303 18.48 378.303 18.864V27H376.407V14.136H379.215L383.271 24.48L387.399 14.136H390.207ZM405.185 14.136V27H403.073V15.936H396.425V27H394.313V14.136H405.185ZM414.258 13.896C415.362 13.896 416.306 14.136 417.09 14.616C417.89 15.096 418.498 15.776 418.914 16.656C419.346 17.52 419.562 18.536 419.562 19.704V20.976H410.754C410.786 22.432 411.154 23.544 411.858 24.312C412.578 25.064 413.578 25.44 414.858 25.44C415.674 25.44 416.394 25.368 417.018 25.224C417.658 25.064 418.314 24.84 418.986 24.552V26.4C418.33 26.688 417.682 26.896 417.042 27.024C416.402 27.168 415.642 27.24 414.762 27.24C413.546 27.24 412.466 26.992 411.522 26.496C410.594 26 409.866 25.264 409.338 24.288C408.826 23.296 408.57 22.088 408.57 20.664C408.57 19.256 408.802 18.048 409.266 17.04C409.746 16.032 410.41 15.256 411.258 14.712C412.122 14.168 413.122 13.896 414.258 13.896ZM414.234 15.624C413.226 15.624 412.426 15.952 411.834 16.608C411.258 17.248 410.914 18.144 410.802 19.296H417.354C417.354 18.56 417.242 17.92 417.018 17.376C416.794 16.832 416.45 16.408 415.986 16.104C415.538 15.784 414.954 15.624 414.234 15.624ZM431.717 15.912H427.517V27H425.429V15.912H421.277V14.136H431.717V15.912ZM438.985 13.896C440.089 13.896 441.033 14.136 441.817 14.616C442.617 15.096 443.225 15.776 443.641 16.656C444.073 17.52 444.289 18.536 444.289 19.704V20.976H435.481C435.513 22.432 435.881 23.544 436.585 24.312C437.305 25.064 438.305 25.44 439.585 25.44C440.401 25.44 441.121 25.368 441.745 25.224C442.385 25.064 443.041 24.84 443.713 24.552V26.4C443.057 26.688 442.409 26.896 441.769 27.024C441.129 27.168 440.369 27.24 439.489 27.24C438.273 27.24 437.193 26.992 436.249 26.496C435.321 26 434.593 25.264 434.065 24.288C433.553 23.296 433.297 22.088 433.297 20.664C433.297 19.256 433.529 18.048 433.993 17.04C434.473 16.032 435.137 15.256 435.985 14.712C436.849 14.168 437.849 13.896 438.985 13.896ZM438.961 15.624C437.953 15.624 437.153 15.952 436.561 16.608C435.985 17.248 435.641 18.144 435.529 19.296H442.081C442.081 18.56 441.969 17.92 441.745 17.376C441.521 16.832 441.177 16.408 440.713 16.104C440.265 15.784 439.681 15.624 438.961 15.624ZM449.675 14.136V19.488H456.659V14.136H458.771V27H456.659V21.264H449.675V27H447.563V14.136H449.675ZM475.541 31.464H473.477V27H462.845V14.136H464.957V25.224H471.605V14.136H473.717V25.248H475.541V31.464ZM480.001 21.984C480.001 22.128 479.993 22.336 479.977 22.608C479.977 22.864 479.969 23.144 479.953 23.448C479.937 23.736 479.921 24.016 479.905 24.288C479.889 24.544 479.873 24.752 479.857 24.912L486.745 14.136H489.337V27H487.369V19.416C487.369 19.16 487.369 18.824 487.369 18.408C487.385 17.992 487.401 17.584 487.417 17.184C487.433 16.768 487.449 16.456 487.465 16.248L480.625 27H478.009V14.136H480.001V21.984ZM494.223 27H491.775L495.447 21.6C494.951 21.472 494.471 21.272 494.007 21C493.543 20.712 493.167 20.32 492.879 19.824C492.591 19.312 492.447 18.68 492.447 17.928C492.447 16.696 492.863 15.76 493.695 15.12C494.527 14.464 495.631 14.136 497.007 14.136H502.767V27H500.655V21.888H497.535L494.223 27ZM494.487 17.952C494.487 18.688 494.759 19.24 495.303 19.608C495.863 19.96 496.639 20.136 497.631 20.136H500.655V15.888H497.223C496.247 15.888 495.543 16.08 495.111 16.464C494.695 16.848 494.487 17.344 494.487 17.952ZM515.2 25.752V14.784C514.512 14.96 513.44 15.208 511.984 15.528L511.768 14.448C512.456 14.24 513.376 13.872 514.528 13.344C515.696 12.8 516.416 12.416 516.688 12.192L517.336 12.36L517.288 25.776L520.504 26.04V27H511.744V26.04L515.2 25.752Z" fill="black"/>
<path d="M626.832 109H624.24L616.488 100.312V109H614.328V91.864H616.488V100.168L624.048 91.864H626.496L619.056 100.192L626.832 109ZM640.06 102.544C640.06 103.616 639.916 104.568 639.628 105.4C639.356 106.216 638.956 106.912 638.428 107.488C637.916 108.064 637.284 108.504 636.532 108.808C635.796 109.096 634.972 109.24 634.06 109.24C633.212 109.24 632.428 109.096 631.708 108.808C630.988 108.504 630.364 108.064 629.836 107.488C629.308 106.912 628.892 106.216 628.588 105.4C628.3 104.568 628.156 103.616 628.156 102.544C628.156 101.12 628.396 99.92 628.876 98.944C629.356 97.952 630.044 97.2 630.94 96.688C631.836 96.16 632.9 95.896 634.132 95.896C635.3 95.896 636.324 96.16 637.204 96.688C638.1 97.2 638.796 97.952 639.292 98.944C639.804 99.92 640.06 101.12 640.06 102.544ZM630.34 102.544C630.34 103.552 630.468 104.432 630.724 105.184C630.996 105.92 631.412 106.488 631.972 106.888C632.532 107.288 633.244 107.488 634.108 107.488C634.972 107.488 635.684 107.288 636.244 106.888C636.804 106.488 637.212 105.92 637.468 105.184C637.74 104.432 637.876 103.552 637.876 102.544C637.876 101.52 637.74 100.648 637.468 99.928C637.196 99.208 636.78 98.656 636.22 98.272C635.676 97.872 634.964 97.672 634.084 97.672C632.772 97.672 631.82 98.104 631.228 98.968C630.636 99.832 630.34 101.024 630.34 102.544ZM657.207 96.136V109H655.311V100.792C655.311 100.456 655.319 100.104 655.335 99.736C655.367 99.368 655.399 99.008 655.431 98.656H655.359L651.159 109H649.383L645.303 98.656H645.231C645.263 99.008 645.279 99.368 645.279 99.736C645.295 100.104 645.303 100.48 645.303 100.864V109H643.407V96.136H646.215L650.271 106.48L654.399 96.136H657.207ZM672.185 96.136V109H670.073V97.936H663.425V109H661.313V96.136H672.185ZM681.258 95.896C682.362 95.896 683.306 96.136 684.09 96.616C684.89 97.096 685.498 97.776 685.914 98.656C686.346 99.52 686.562 100.536 686.562 101.704V102.976H677.754C677.786 104.432 678.154 105.544 678.858 106.312C679.578 107.064 680.578 107.44 681.858 107.44C682.674 107.44 683.394 107.368 684.018 107.224C684.658 107.064 685.314 106.84 685.986 106.552V108.4C685.33 108.688 684.682 108.896 684.042 109.024C683.402 109.168 682.642 109.24 681.762 109.24C680.546 109.24 679.466 108.992 678.522 108.496C677.594 108 676.866 107.264 676.338 106.288C675.826 105.296 675.57 104.088 675.57 102.664C675.57 101.256 675.802 100.048 676.266 99.04C676.746 98.032 677.41 97.256 678.258 96.712C679.122 96.168 680.122 95.896 681.258 95.896ZM681.234 97.624C680.226 97.624 679.426 97.952 678.834 98.608C678.258 99.248 677.914 100.144 677.802 101.296H684.354C684.354 100.56 684.242 99.92 684.018 99.376C683.794 98.832 683.45 98.408 682.986 98.104C682.538 97.784 681.954 97.624 681.234 97.624ZM698.717 97.912H694.517V109H692.429V97.912H688.277V96.136H698.717V97.912ZM705.985 95.896C707.089 95.896 708.033 96.136 708.817 96.616C709.617 97.096 710.225 97.776 710.641 98.656C711.073 99.52 711.289 100.536 711.289 101.704V102.976H702.481C702.513 104.432 702.881 105.544 703.585 106.312C704.305 107.064 705.305 107.44 706.585 107.44C707.401 107.44 708.121 107.368 708.745 107.224C709.385 107.064 710.041 106.84 710.713 106.552V108.4C710.057 108.688 709.409 108.896 708.769 109.024C708.129 109.168 707.369 109.24 706.489 109.24C705.273 109.24 704.193 108.992 703.249 108.496C702.321 108 701.593 107.264 701.065 106.288C700.553 105.296 700.297 104.088 700.297 102.664C700.297 101.256 700.529 100.048 700.993 99.04C701.473 98.032 702.137 97.256 702.985 96.712C703.849 96.168 704.849 95.896 705.985 95.896ZM705.961 97.624C704.953 97.624 704.153 97.952 703.561 98.608C702.985 99.248 702.641 100.144 702.529 101.296H709.081C709.081 100.56 708.969 99.92 708.745 99.376C708.521 98.832 708.177 98.408 707.713 98.104C707.265 97.784 706.681 97.624 705.961 97.624ZM716.675 96.136V101.488H723.659V96.136H725.771V109H723.659V103.264H716.675V109H714.563V96.136H716.675ZM742.541 113.464H740.477V109H729.845V96.136H731.957V107.224H738.605V96.136H740.717V107.248H742.541V113.464ZM747.001 103.984C747.001 104.128 746.993 104.336 746.977 104.608C746.977 104.864 746.969 105.144 746.953 105.448C746.937 105.736 746.921 106.016 746.905 106.288C746.889 106.544 746.873 106.752 746.857 106.912L753.745 96.136H756.337V109H754.369V101.416C754.369 101.16 754.369 100.824 754.369 100.408C754.385 99.992 754.401 99.584 754.417 99.184C754.433 98.768 754.449 98.456 754.465 98.248L747.625 109H745.009V96.136H747.001V103.984ZM761.223 109H758.775L762.447 103.6C761.951 103.472 761.471 103.272 761.007 103C760.543 102.712 760.167 102.32 759.879 101.824C759.591 101.312 759.447 100.68 759.447 99.928C759.447 98.696 759.863 97.76 760.695 97.12C761.527 96.464 762.631 96.136 764.007 96.136H769.767V109H767.655V103.888H764.535L761.223 109ZM761.487 99.952C761.487 100.688 761.759 101.24 762.303 101.608C762.863 101.96 763.639 102.136 764.631 102.136H767.655V97.888H764.223C763.247 97.888 762.543 98.08 762.111 98.464C761.695 98.848 761.487 99.344 761.487 99.952ZM778.912 108.136C781.168 106.712 783.048 105.176 784.552 103.528C786.056 101.88 786.808 100.344 786.808 98.92C786.808 98.024 786.536 97.256 785.992 96.616C785.464 95.96 784.672 95.632 783.616 95.632C782.896 95.632 782.144 95.816 781.36 96.184C780.592 96.552 779.96 96.96 779.464 97.408L778.936 96.568C779.432 95.96 780.184 95.408 781.192 94.912C782.2 94.416 783.248 94.168 784.336 94.168C785.36 94.168 786.224 94.36 786.928 94.744C787.632 95.112 788.152 95.608 788.488 96.232C788.84 96.856 789.016 97.52 789.016 98.224C789.016 99.808 788.32 101.456 786.928 103.168C785.536 104.88 783.752 106.392 781.576 107.704L788.536 107.224L789.64 105.448L790.576 105.76L789.808 109H779.224L778.912 108.136Z" fill="black"/>
<path d="M686.832 285H684.24L676.488 276.312V285H674.328V267.864H676.488V276.168L684.048 267.864H686.496L679.056 276.192L686.832 285ZM700.06 278.544C700.06 279.616 699.916 280.568 699.628 281.4C699.356 282.216 698.956 282.912 698.428 283.488C697.916 284.064 697.284 284.504 696.532 284.808C695.796 285.096 694.972 285.24 694.06 285.24C693.212 285.24 692.428 285.096 691.708 284.808C690.988 284.504 690.364 284.064 689.836 283.488C689.308 282.912 688.892 282.216 688.588 281.4C688.3 280.568 688.156 279.616 688.156 278.544C688.156 277.12 688.396 275.92 688.876 274.944C689.356 273.952 690.044 273.2 690.94 272.688C691.836 272.16 692.9 271.896 694.132 271.896C695.3 271.896 696.324 272.16 697.204 272.688C698.1 273.2 698.796 273.952 699.292 274.944C699.804 275.92 700.06 277.12 700.06 278.544ZM690.34 278.544C690.34 279.552 690.468 280.432 690.724 281.184C690.996 281.92 691.412 282.488 691.972 282.888C692.532 283.288 693.244 283.488 694.108 283.488C694.972 283.488 695.684 283.288 696.244 282.888C696.804 282.488 697.212 281.92 697.468 281.184C697.74 280.432 697.876 279.552 697.876 278.544C697.876 277.52 697.74 276.648 697.468 275.928C697.196 275.208 696.78 274.656 696.22 274.272C695.676 273.872 694.964 273.672 694.084 273.672C692.772 273.672 691.82 274.104 691.228 274.968C690.636 275.832 690.34 277.024 690.34 278.544ZM717.207 272.136V285H715.311V276.792C715.311 276.456 715.319 276.104 715.335 275.736C715.367 275.368 715.399 275.008 715.431 274.656H715.359L711.159 285H709.383L705.303 274.656H705.231C705.263 275.008 705.279 275.368 705.279 275.736C705.295 276.104 705.303 276.48 705.303 276.864V285H703.407V272.136H706.215L710.271 282.48L714.399 272.136H717.207ZM732.185 272.136V285H730.073V273.936H723.425V285H721.313V272.136H732.185ZM741.258 271.896C742.362 271.896 743.306 272.136 744.09 272.616C744.89 273.096 745.498 273.776 745.914 274.656C746.346 275.52 746.562 276.536 746.562 277.704V278.976H737.754C737.786 280.432 738.154 281.544 738.858 282.312C739.578 283.064 740.578 283.44 741.858 283.44C742.674 283.44 743.394 283.368 744.018 283.224C744.658 283.064 745.314 282.84 745.986 282.552V284.4C745.33 284.688 744.682 284.896 744.042 285.024C743.402 285.168 742.642 285.24 741.762 285.24C740.546 285.24 739.466 284.992 738.522 284.496C737.594 284 736.866 283.264 736.338 282.288C735.826 281.296 735.57 280.088 735.57 278.664C735.57 277.256 735.802 276.048 736.266 275.04C736.746 274.032 737.41 273.256 738.258 272.712C739.122 272.168 740.122 271.896 741.258 271.896ZM741.234 273.624C740.226 273.624 739.426 273.952 738.834 274.608C738.258 275.248 737.914 276.144 737.802 277.296H744.354C744.354 276.56 744.242 275.92 744.018 275.376C743.794 274.832 743.45 274.408 742.986 274.104C742.538 273.784 741.954 273.624 741.234 273.624ZM758.717 273.912H754.517V285H752.429V273.912H748.277V272.136H758.717V273.912ZM765.985 271.896C767.089 271.896 768.033 272.136 768.817 272.616C769.617 273.096 770.225 273.776 770.641 274.656C771.073 275.52 771.289 276.536 771.289 277.704V278.976H762.481C762.513 280.432 762.881 281.544 763.585 282.312C764.305 283.064 765.305 283.44 766.585 283.44C767.401 283.44 768.121 283.368 768.745 283.224C769.385 283.064 770.041 282.84 770.713 282.552V284.4C770.057 284.688 769.409 284.896 768.769 285.024C768.129 285.168 767.369 285.24 766.489 285.24C765.273 285.24 764.193 284.992 763.249 284.496C762.321 284 761.593 283.264 761.065 282.288C760.553 281.296 760.297 280.088 760.297 278.664C760.297 277.256 760.529 276.048 760.993 275.04C761.473 274.032 762.137 273.256 762.985 272.712C763.849 272.168 764.849 271.896 765.985 271.896ZM765.961 273.624C764.953 273.624 764.153 273.952 763.561 274.608C762.985 275.248 762.641 276.144 762.529 277.296H769.081C769.081 276.56 768.969 275.92 768.745 275.376C768.521 274.832 768.177 274.408 767.713 274.104C767.265 273.784 766.681 273.624 765.961 273.624ZM776.675 272.136V277.488H783.659V272.136H785.771V285H783.659V279.264H776.675V285H774.563V272.136H776.675ZM802.541 289.464H800.477V285H789.845V272.136H791.957V283.224H798.605V272.136H800.717V283.248H802.541V289.464ZM807.001 279.984C807.001 280.128 806.993 280.336 806.977 280.608C806.977 280.864 806.969 281.144 806.953 281.448C806.937 281.736 806.921 282.016 806.905 282.288C806.889 282.544 806.873 282.752 806.857 282.912L813.745 272.136H816.337V285H814.369V277.416C814.369 277.16 814.369 276.824 814.369 276.408C814.385 275.992 814.401 275.584 814.417 275.184C814.433 274.768 814.449 274.456 814.465 274.248L807.625 285H805.009V272.136H807.001V279.984ZM821.223 285H818.775L822.447 279.6C821.951 279.472 821.471 279.272 821.007 279C820.543 278.712 820.167 278.32 819.879 277.824C819.591 277.312 819.447 276.68 819.447 275.928C819.447 274.696 819.863 273.76 820.695 273.12C821.527 272.464 822.631 272.136 824.007 272.136H829.767V285H827.655V279.888H824.535L821.223 285ZM821.487 275.952C821.487 276.688 821.759 277.24 822.303 277.608C822.863 277.96 823.639 278.136 824.631 278.136H827.655V273.888H824.223C823.247 273.888 822.543 274.08 822.111 274.464C821.695 274.848 821.487 275.344 821.487 275.952ZM843.208 270.12C844.424 270.12 845.464 270.44 846.328 271.08C847.192 271.72 847.624 272.68 847.624 273.96C847.624 274.568 847.432 275.192 847.048 275.832C846.68 276.472 846.192 277.04 845.584 277.536C844.976 278.032 844.344 278.376 843.688 278.568C844.76 278.536 845.664 278.688 846.4 279.024C847.152 279.36 847.712 279.832 848.08 280.44C848.448 281.048 848.632 281.736 848.632 282.504C848.632 283.576 848.296 284.6 847.624 285.576C846.968 286.568 846.04 287.368 844.84 287.976C843.64 288.584 842.28 288.888 840.76 288.888C840.088 288.888 839.44 288.832 838.816 288.72V287.52C839.328 287.616 839.824 287.664 840.304 287.664C841.44 287.664 842.472 287.448 843.4 287.016C844.344 286.584 845.08 286 845.608 285.264C846.136 284.544 846.4 283.76 846.4 282.912C846.4 281.76 846.088 280.888 845.464 280.296C844.856 279.704 843.84 279.4 842.416 279.384L841.672 279.528L840.4 279.792V278.328C841.84 278.072 843.032 277.6 843.976 276.912C844.92 276.208 845.392 275.424 845.392 274.56C845.408 273.552 845.144 272.808 844.6 272.328C844.056 271.832 843.352 271.584 842.488 271.584C841.656 271.584 840.952 271.712 840.376 271.968C839.8 272.208 839.248 272.544 838.72 272.976L838.12 271.992C838.584 271.512 839.256 271.08 840.136 270.696C841.032 270.312 842.056 270.12 843.208 270.12Z" fill="black"/>
<path d="M624.832 470H622.24L614.488 461.312V470H612.328V452.864H614.488V461.168L622.048 452.864H624.496L617.056 461.192L624.832 470ZM638.06 463.544C638.06 464.616 637.916 465.568 637.628 466.4C637.356 467.216 636.956 467.912 636.428 468.488C635.916 469.064 635.284 469.504 634.532 469.808C633.796 470.096 632.972 470.24 632.06 470.24C631.212 470.24 630.428 470.096 629.708 469.808C628.988 469.504 628.364 469.064 627.836 468.488C627.308 467.912 626.892 467.216 626.588 466.4C626.3 465.568 626.156 464.616 626.156 463.544C626.156 462.12 626.396 460.92 626.876 459.944C627.356 458.952 628.044 458.2 628.94 457.688C629.836 457.16 630.9 456.896 632.132 456.896C633.3 456.896 634.324 457.16 635.204 457.688C636.1 458.2 636.796 458.952 637.292 459.944C637.804 460.92 638.06 462.12 638.06 463.544ZM628.34 463.544C628.34 464.552 628.468 465.432 628.724 466.184C628.996 466.92 629.412 467.488 629.972 467.888C630.532 468.288 631.244 468.488 632.108 468.488C632.972 468.488 633.684 468.288 634.244 467.888C634.804 467.488 635.212 466.92 635.468 466.184C635.74 465.432 635.876 464.552 635.876 463.544C635.876 462.52 635.74 461.648 635.468 460.928C635.196 460.208 634.78 459.656 634.22 459.272C633.676 458.872 632.964 458.672 632.084 458.672C630.772 458.672 629.82 459.104 629.228 459.968C628.636 460.832 628.34 462.024 628.34 463.544ZM655.207 457.136V470H653.311V461.792C653.311 461.456 653.319 461.104 653.335 460.736C653.367 460.368 653.399 460.008 653.431 459.656H653.359L649.159 470H647.383L643.303 459.656H643.231C643.263 460.008 643.279 460.368 643.279 460.736C643.295 461.104 643.303 461.48 643.303 461.864V470H641.407V457.136H644.215L648.271 467.48L652.399 457.136H655.207ZM670.185 457.136V470H668.073V458.936H661.425V470H659.313V457.136H670.185ZM679.258 456.896C680.362 456.896 681.306 457.136 682.09 457.616C682.89 458.096 683.498 458.776 683.914 459.656C684.346 460.52 684.562 461.536 684.562 462.704V463.976H675.754C675.786 465.432 676.154 466.544 676.858 467.312C677.578 468.064 678.578 468.44 679.858 468.44C680.674 468.44 681.394 468.368 682.018 468.224C682.658 468.064 683.314 467.84 683.986 467.552V469.4C683.33 469.688 682.682 469.896 682.042 470.024C681.402 470.168 680.642 470.24 679.762 470.24C678.546 470.24 677.466 469.992 676.522 469.496C675.594 469 674.866 468.264 674.338 467.288C673.826 466.296 673.57 465.088 673.57 463.664C673.57 462.256 673.802 461.048 674.266 460.04C674.746 459.032 675.41 458.256 676.258 457.712C677.122 457.168 678.122 456.896 679.258 456.896ZM679.234 458.624C678.226 458.624 677.426 458.952 676.834 459.608C676.258 460.248 675.914 461.144 675.802 462.296H682.354C682.354 461.56 682.242 460.92 682.018 460.376C681.794 459.832 681.45 459.408 680.986 459.104C680.538 458.784 679.954 458.624 679.234 458.624ZM696.717 458.912H692.517V470H690.429V458.912H686.277V457.136H696.717V458.912ZM703.985 456.896C705.089 456.896 706.033 457.136 706.817 457.616C707.617 458.096 708.225 458.776 708.641 459.656C709.073 460.52 709.289 461.536 709.289 462.704V463.976H700.481C700.513 465.432 700.881 466.544 701.585 467.312C702.305 468.064 703.305 468.44 704.585 468.44C705.401 468.44 706.121 468.368 706.745 468.224C707.385 468.064 708.041 467.84 708.713 467.552V469.4C708.057 469.688 707.409 469.896 706.769 470.024C706.129 470.168 705.369 470.24 704.489 470.24C703.273 470.24 702.193 469.992 701.249 469.496C700.321 469 699.593 468.264 699.065 467.288C698.553 466.296 698.297 465.088 698.297 463.664C698.297 462.256 698.529 461.048 698.993 460.04C699.473 459.032 700.137 458.256 700.985 457.712C701.849 457.168 702.849 456.896 703.985 456.896ZM703.961 458.624C702.953 458.624 702.153 458.952 701.561 459.608C700.985 460.248 700.641 461.144 700.529 462.296H707.081C707.081 461.56 706.969 460.92 706.745 460.376C706.521 459.832 706.177 459.408 705.713 459.104C705.265 458.784 704.681 458.624 703.961 458.624ZM714.675 457.136V462.488H721.659V457.136H723.771V470H721.659V464.264H714.675V470H712.563V457.136H714.675ZM740.541 474.464H738.477V470H727.845V457.136H729.957V468.224H736.605V457.136H738.717V468.248H740.541V474.464ZM745.001 464.984C745.001 465.128 744.993 465.336 744.977 465.608C744.977 465.864 744.969 466.144 744.953 466.448C744.937 466.736 744.921 467.016 744.905 467.288C744.889 467.544 744.873 467.752 744.857 467.912L751.745 457.136H754.337V470H752.369V462.416C752.369 462.16 752.369 461.824 752.369 461.408C752.385 460.992 752.401 460.584 752.417 460.184C752.433 459.768 752.449 459.456 752.465 459.248L745.625 470H743.009V457.136H745.001V464.984ZM759.223 470H756.775L760.447 464.6C759.951 464.472 759.471 464.272 759.007 464C758.543 463.712 758.167 463.32 757.879 462.824C757.591 462.312 757.447 461.68 757.447 460.928C757.447 459.696 757.863 458.76 758.695 458.12C759.527 457.464 760.631 457.136 762.007 457.136H767.767V470H765.655V464.888H762.535L759.223 470ZM759.487 460.952C759.487 461.688 759.759 462.24 760.303 462.608C760.863 462.96 761.639 463.136 762.631 463.136H765.655V458.888H762.223C761.247 458.888 760.543 459.08 760.111 459.464C759.695 459.848 759.487 460.344 759.487 460.952ZM776.24 468.968C776.928 467.72 777.56 466.584 778.136 465.56C779.288 463.528 780.28 461.72 781.112 460.136C781.96 458.536 782.792 456.848 783.608 455.072H784.304L785.576 456.032C783.8 459.136 781.56 463.008 778.856 467.648L778.112 468.752L784.448 468.416L784.472 462.776L786.392 462.248V468.272L788.936 468.152V470H786.392V474.416H784.4L784.448 470H776.576L776.24 468.968Z" fill="black"/>
<path d="M353.832 541H351.24L343.488 532.312V541H341.328V523.864H343.488V532.168L351.048 523.864H353.496L346.056 532.192L353.832 541ZM367.06 534.544C367.06 535.616 366.916 536.568 366.628 537.4C366.356 538.216 365.956 538.912 365.428 539.488C364.916 540.064 364.284 540.504 363.532 540.808C362.796 541.096 361.972 541.24 361.06 541.24C360.212 541.24 359.428 541.096 358.708 540.808C357.988 540.504 357.364 540.064 356.836 539.488C356.308 538.912 355.892 538.216 355.588 537.4C355.3 536.568 355.156 535.616 355.156 534.544C355.156 533.12 355.396 531.92 355.876 530.944C356.356 529.952 357.044 529.2 357.94 528.688C358.836 528.16 359.9 527.896 361.132 527.896C362.3 527.896 363.324 528.16 364.204 528.688C365.1 529.2 365.796 529.952 366.292 530.944C366.804 531.92 367.06 533.12 367.06 534.544ZM357.34 534.544C357.34 535.552 357.468 536.432 357.724 537.184C357.996 537.92 358.412 538.488 358.972 538.888C359.532 539.288 360.244 539.488 361.108 539.488C361.972 539.488 362.684 539.288 363.244 538.888C363.804 538.488 364.212 537.92 364.468 537.184C364.74 536.432 364.876 535.552 364.876 534.544C364.876 533.52 364.74 532.648 364.468 531.928C364.196 531.208 363.78 530.656 363.22 530.272C362.676 529.872 361.964 529.672 361.084 529.672C359.772 529.672 358.82 530.104 358.228 530.968C357.636 531.832 357.34 533.024 357.34 534.544ZM384.207 528.136V541H382.311V532.792C382.311 532.456 382.319 532.104 382.335 531.736C382.367 531.368 382.399 531.008 382.431 530.656H382.359L378.159 541H376.383L372.303 530.656H372.231C372.263 531.008 372.279 531.368 372.279 531.736C372.295 532.104 372.303 532.48 372.303 532.864V541H370.407V528.136H373.215L377.271 538.48L381.399 528.136H384.207ZM399.185 528.136V541H397.073V529.936H390.425V541H388.313V528.136H399.185ZM408.258 527.896C409.362 527.896 410.306 528.136 411.09 528.616C411.89 529.096 412.498 529.776 412.914 530.656C413.346 531.52 413.562 532.536 413.562 533.704V534.976H404.754C404.786 536.432 405.154 537.544 405.858 538.312C406.578 539.064 407.578 539.44 408.858 539.44C409.674 539.44 410.394 539.368 411.018 539.224C411.658 539.064 412.314 538.84 412.986 538.552V540.4C412.33 540.688 411.682 540.896 411.042 541.024C410.402 541.168 409.642 541.24 408.762 541.24C407.546 541.24 406.466 540.992 405.522 540.496C404.594 540 403.866 539.264 403.338 538.288C402.826 537.296 402.57 536.088 402.57 534.664C402.57 533.256 402.802 532.048 403.266 531.04C403.746 530.032 404.41 529.256 405.258 528.712C406.122 528.168 407.122 527.896 408.258 527.896ZM408.234 529.624C407.226 529.624 406.426 529.952 405.834 530.608C405.258 531.248 404.914 532.144 404.802 533.296H411.354C411.354 532.56 411.242 531.92 411.018 531.376C410.794 530.832 410.45 530.408 409.986 530.104C409.538 529.784 408.954 529.624 408.234 529.624ZM425.717 529.912H421.517V541H419.429V529.912H415.277V528.136H425.717V529.912ZM432.985 527.896C434.089 527.896 435.033 528.136 435.817 528.616C436.617 529.096 437.225 529.776 437.641 530.656C438.073 531.52 438.289 532.536 438.289 533.704V534.976H429.481C429.513 536.432 429.881 537.544 430.585 538.312C431.305 539.064 432.305 539.44 433.585 539.44C434.401 539.44 435.121 539.368 435.745 539.224C436.385 539.064 437.041 538.84 437.713 538.552V540.4C437.057 540.688 436.409 540.896 435.769 541.024C435.129 541.168 434.369 541.24 433.489 541.24C432.273 541.24 431.193 540.992 430.249 540.496C429.321 540 428.593 539.264 428.065 538.288C427.553 537.296 427.297 536.088 427.297 534.664C427.297 533.256 427.529 532.048 427.993 531.04C428.473 530.032 429.137 529.256 429.985 528.712C430.849 528.168 431.849 527.896 432.985 527.896ZM432.961 529.624C431.953 529.624 431.153 529.952 430.561 530.608C429.985 531.248 429.641 532.144 429.529 533.296H436.081C436.081 532.56 435.969 531.92 435.745 531.376C435.521 530.832 435.177 530.408 434.713 530.104C434.265 529.784 433.681 529.624 432.961 529.624ZM443.675 528.136V533.488H450.659V528.136H452.771V541H450.659V535.264H443.675V541H441.563V528.136H443.675ZM469.541 545.464H467.477V541H456.845V528.136H458.957V539.224H465.605V528.136H467.717V539.248H469.541V545.464ZM474.001 535.984C474.001 536.128 473.993 536.336 473.977 536.608C473.977 536.864 473.969 537.144 473.953 537.448C473.937 537.736 473.921 538.016 473.905 538.288C473.889 538.544 473.873 538.752 473.857 538.912L480.745 528.136H483.337V541H481.369V533.416C481.369 533.16 481.369 532.824 481.369 532.408C481.385 531.992 481.401 531.584 481.417 531.184C481.433 530.768 481.449 530.456 481.465 530.248L474.625 541H472.009V528.136H474.001V535.984ZM488.223 541H485.775L489.447 535.6C488.951 535.472 488.471 535.272 488.007 535C487.543 534.712 487.167 534.32 486.879 533.824C486.591 533.312 486.447 532.68 486.447 531.928C486.447 530.696 486.863 529.76 487.695 529.12C488.527 528.464 489.631 528.136 491.007 528.136H496.767V541H494.655V535.888H491.535L488.223 541ZM488.487 531.952C488.487 532.688 488.759 533.24 489.303 533.608C489.863 533.96 490.639 534.136 491.631 534.136H494.655V529.888H491.223C490.247 529.888 489.543 530.08 489.111 530.464C488.695 530.848 488.487 531.344 488.487 531.952ZM505.96 543.928C506.312 543.96 506.568 543.976 506.728 543.976C507.816 543.976 508.872 543.72 509.896 543.208C510.936 542.696 511.776 542 512.416 541.12C513.056 540.24 513.376 539.272 513.376 538.216C513.376 536.824 513.016 535.792 512.296 535.12C511.592 534.448 510.64 534.112 509.44 534.112C508.496 534.112 507.448 534.312 506.296 534.712L505.864 534.376L506.776 526.504H513.136L513.472 526.288H514.696L514.168 528.304H508.36L507.496 533.512C508.456 533.064 509.456 532.84 510.496 532.84C511.424 532.84 512.272 533.032 513.04 533.416C513.824 533.8 514.448 534.384 514.912 535.168C515.376 535.936 515.608 536.872 515.608 537.976C515.608 539.08 515.232 540.184 514.48 541.288C513.728 542.408 512.704 543.32 511.408 544.024C510.112 544.744 508.704 545.104 507.184 545.104C506.672 545.104 506.256 545.056 505.936 544.96L505.96 543.928Z" fill="black"/>
<path d="M92.832 468H90.24L82.488 459.312V468H80.328V450.864H82.488V459.168L90.048 450.864H92.496L85.056 459.192L92.832 468ZM106.06 461.544C106.06 462.616 105.916 463.568 105.628 464.4C105.356 465.216 104.956 465.912 104.428 466.488C103.916 467.064 103.284 467.504 102.532 467.808C101.796 468.096 100.972 468.24 100.06 468.24C99.2119 468.24 98.4279 468.096 97.7079 467.808C96.9879 467.504 96.3639 467.064 95.8359 466.488C95.3079 465.912 94.8919 465.216 94.5879 464.4C94.2999 463.568 94.1559 462.616 94.1559 461.544C94.1559 460.12 94.3959 458.92 94.8759 457.944C95.3559 456.952 96.0439 456.2 96.9399 455.688C97.8359 455.16 98.8999 454.896 100.132 454.896C101.3 454.896 102.324 455.16 103.204 455.688C104.1 456.2 104.796 456.952 105.292 457.944C105.804 458.92 106.06 460.12 106.06 461.544ZM96.3399 461.544C96.3399 462.552 96.4679 463.432 96.7239 464.184C96.9959 464.92 97.4119 465.488 97.9719 465.888C98.5319 466.288 99.2439 466.488 100.108 466.488C100.972 466.488 101.684 466.288 102.244 465.888C102.804 465.488 103.212 464.92 103.468 464.184C103.74 463.432 103.876 462.552 103.876 461.544C103.876 460.52 103.74 459.648 103.468 458.928C103.196 458.208 102.78 457.656 102.22 457.272C101.676 456.872 100.964 456.672 100.084 456.672C98.7719 456.672 97.8199 457.104 97.2279 457.968C96.6359 458.832 96.3399 460.024 96.3399 461.544ZM123.207 455.136V468H121.311V459.792C121.311 459.456 121.319 459.104 121.335 458.736C121.367 458.368 121.399 458.008 121.431 457.656H121.359L117.159 468H115.383L111.303 457.656H111.231C111.263 458.008 111.279 458.368 111.279 458.736C111.295 459.104 111.303 459.48 111.303 459.864V468H109.407V455.136H112.215L116.271 465.48L120.399 455.136H123.207ZM138.185 455.136V468H136.073V456.936H129.425V468H127.313V455.136H138.185ZM147.258 454.896C148.362 454.896 149.306 455.136 150.09 455.616C150.89 456.096 151.498 456.776 151.914 457.656C152.346 458.52 152.562 459.536 152.562 460.704V461.976H143.754C143.786 463.432 144.154 464.544 144.858 465.312C145.578 466.064 146.578 466.44 147.858 466.44C148.674 466.44 149.394 466.368 150.018 466.224C150.658 466.064 151.314 465.84 151.986 465.552V467.4C151.33 467.688 150.682 467.896 150.042 468.024C149.402 468.168 148.642 468.24 147.762 468.24C146.546 468.24 145.466 467.992 144.522 467.496C143.594 467 142.866 466.264 142.338 465.288C141.826 464.296 141.57 463.088 141.57 461.664C141.57 460.256 141.802 459.048 142.266 458.04C142.746 457.032 143.41 456.256 144.258 455.712C145.122 455.168 146.122 454.896 147.258 454.896ZM147.234 456.624C146.226 456.624 145.426 456.952 144.834 457.608C144.258 458.248 143.914 459.144 143.802 460.296H150.354C150.354 459.56 150.242 458.92 150.018 458.376C149.794 457.832 149.45 457.408 148.986 457.104C148.538 456.784 147.954 456.624 147.234 456.624ZM164.717 456.912H160.517V468H158.429V456.912H154.277V455.136H164.717V456.912ZM171.985 454.896C173.089 454.896 174.033 455.136 174.817 455.616C175.617 456.096 176.225 456.776 176.641 457.656C177.073 458.52 177.289 459.536 177.289 460.704V461.976H168.481C168.513 463.432 168.881 464.544 169.585 465.312C170.305 466.064 171.305 466.44 172.585 466.44C173.401 466.44 174.121 466.368 174.745 466.224C175.385 466.064 176.041 465.84 176.713 465.552V467.4C176.057 467.688 175.409 467.896 174.769 468.024C174.129 468.168 173.369 468.24 172.489 468.24C171.273 468.24 170.193 467.992 169.249 467.496C168.321 467 167.593 466.264 167.065 465.288C166.553 464.296 166.297 463.088 166.297 461.664C166.297 460.256 166.529 459.048 166.993 458.04C167.473 457.032 168.137 456.256 168.985 455.712C169.849 455.168 170.849 454.896 171.985 454.896ZM171.961 456.624C170.953 456.624 170.153 456.952 169.561 457.608C168.985 458.248 168.641 459.144 168.529 460.296H175.081C175.081 459.56 174.969 458.92 174.745 458.376C174.521 457.832 174.177 457.408 173.713 457.104C173.265 456.784 172.681 456.624 171.961 456.624ZM182.675 455.136V460.488H189.659V455.136H191.771V468H189.659V462.264H182.675V468H180.563V455.136H182.675ZM208.541 472.464H206.477V468H195.845V455.136H197.957V466.224H204.605V455.136H206.717V466.248H208.541V472.464ZM213.001 462.984C213.001 463.128 212.993 463.336 212.977 463.608C212.977 463.864 212.969 464.144 212.953 464.448C212.937 464.736 212.921 465.016 212.905 465.288C212.889 465.544 212.873 465.752 212.857 465.912L219.745 455.136H222.337V468H220.369V460.416C220.369 460.16 220.369 459.824 220.369 459.408C220.385 458.992 220.401 458.584 220.417 458.184C220.433 457.768 220.449 457.456 220.465 457.248L213.625 468H211.009V455.136H213.001V462.984ZM227.223 468H224.775L228.447 462.6C227.951 462.472 227.471 462.272 227.007 462C226.543 461.712 226.167 461.32 225.879 460.824C225.591 460.312 225.447 459.68 225.447 458.928C225.447 457.696 225.863 456.76 226.695 456.12C227.527 455.464 228.631 455.136 230.007 455.136H235.767V468H233.655V462.888H230.535L227.223 468ZM227.487 458.952C227.487 459.688 227.759 460.24 228.303 460.608C228.863 460.96 229.639 461.136 230.631 461.136H233.655V456.888H230.223C229.247 456.888 228.543 457.08 228.111 457.464C227.695 457.848 227.487 458.344 227.487 458.952ZM255.4 450.936C253.704 451.464 252.232 452.232 250.984 453.24C249.752 454.248 248.808 455.368 248.152 456.6C247.496 457.832 247.144 459.072 247.096 460.32C247.032 462.272 247.312 463.896 247.936 465.192C248.56 466.472 249.624 467.112 251.128 467.112C251.912 467.112 252.576 466.888 253.12 466.44C253.664 465.992 254.064 465.432 254.32 464.76C254.592 464.072 254.728 463.368 254.728 462.648C254.728 461.208 254.44 460.088 253.864 459.288C253.304 458.488 252.6 458.088 251.752 458.088C251.128 458.088 250.632 458.152 250.264 458.28C249.912 458.408 249.592 458.592 249.304 458.832L248.824 457.968C249.048 457.664 249.504 457.368 250.192 457.08C250.896 456.792 251.6 456.648 252.304 456.648C253.248 456.648 254.056 456.896 254.728 457.392C255.416 457.888 255.928 458.528 256.264 459.312C256.6 460.096 256.768 460.92 256.768 461.784C256.768 462.84 256.528 463.864 256.048 464.856C255.568 465.848 254.872 466.664 253.96 467.304C253.048 467.928 251.984 468.24 250.768 468.24C249.568 468.24 248.52 467.936 247.624 467.328C246.728 466.704 246.04 465.872 245.56 464.832C245.08 463.792 244.84 462.648 244.84 461.4C244.84 459.496 245.336 457.728 246.328 456.096C247.32 454.464 248.592 453.12 250.144 452.064C251.696 451.008 253.288 450.328 254.92 450.024L255.4 450.936Z" fill="black"/>
<path d="M14.832 279H12.24L4.488 270.312V279H2.328V261.864H4.488V270.168L12.048 261.864H14.496L7.056 270.192L14.832 279ZM28.0599 272.544C28.0599 273.616 27.9159 274.568 27.6279 275.4C27.3559 276.216 26.9559 276.912 26.4279 277.488C25.9159 278.064 25.2839 278.504 24.5319 278.808C23.7959 279.096 22.9719 279.24 22.0599 279.24C21.2119 279.24 20.4279 279.096 19.7079 278.808C18.9879 278.504 18.3639 278.064 17.8359 277.488C17.3079 276.912 16.8919 276.216 16.5879 275.4C16.2999 274.568 16.1559 273.616 16.1559 272.544C16.1559 271.12 16.3959 269.92 16.8759 268.944C17.3559 267.952 18.0439 267.2 18.9399 266.688C19.8359 266.16 20.8999 265.896 22.1319 265.896C23.2999 265.896 24.3239 266.16 25.2039 266.688C26.0999 267.2 26.7959 267.952 27.2919 268.944C27.8039 269.92 28.0599 271.12 28.0599 272.544ZM18.3399 272.544C18.3399 273.552 18.4679 274.432 18.7239 275.184C18.9959 275.92 19.4119 276.488 19.9719 276.888C20.5319 277.288 21.2439 277.488 22.1079 277.488C22.9719 277.488 23.6839 277.288 24.2439 276.888C24.8039 276.488 25.2119 275.92 25.4679 275.184C25.7399 274.432 25.8759 273.552 25.8759 272.544C25.8759 271.52 25.7399 270.648 25.4679 269.928C25.1959 269.208 24.7799 268.656 24.2199 268.272C23.6759 267.872 22.9639 267.672 22.0839 267.672C20.7719 267.672 19.8199 268.104 19.2279 268.968C18.6359 269.832 18.3399 271.024 18.3399 272.544ZM45.2072 266.136V279H43.3112V270.792C43.3112 270.456 43.3192 270.104 43.3352 269.736C43.3672 269.368 43.3992 269.008 43.4312 268.656H43.3592L39.1592 279H37.3832L33.3032 268.656H33.2312C33.2632 269.008 33.2792 269.368 33.2792 269.736C33.2952 270.104 33.3032 270.48 33.3032 270.864V279H31.4072V266.136H34.2152L38.2712 276.48L42.3992 266.136H45.2072ZM60.1854 266.136V279H58.0734V267.936H51.4254V279H49.3134V266.136H60.1854ZM69.258 265.896C70.362 265.896 71.306 266.136 72.09 266.616C72.89 267.096 73.498 267.776 73.914 268.656C74.346 269.52 74.562 270.536 74.562 271.704V272.976H65.754C65.786 274.432 66.154 275.544 66.858 276.312C67.578 277.064 68.578 277.44 69.858 277.44C70.674 277.44 71.394 277.368 72.018 277.224C72.658 277.064 73.314 276.84 73.986 276.552V278.4C73.33 278.688 72.682 278.896 72.042 279.024C71.402 279.168 70.642 279.24 69.762 279.24C68.546 279.24 67.466 278.992 66.522 278.496C65.594 278 64.866 277.264 64.338 276.288C63.826 275.296 63.57 274.088 63.57 272.664C63.57 271.256 63.802 270.048 64.266 269.04C64.746 268.032 65.41 267.256 66.258 266.712C67.122 266.168 68.122 265.896 69.258 265.896ZM69.234 267.624C68.226 267.624 67.426 267.952 66.834 268.608C66.258 269.248 65.914 270.144 65.802 271.296H72.354C72.354 270.56 72.242 269.92 72.018 269.376C71.794 268.832 71.45 268.408 70.986 268.104C70.538 267.784 69.954 267.624 69.234 267.624ZM86.7169 267.912H82.5169V279H80.4289V267.912H76.2769V266.136H86.7169V267.912ZM93.9846 265.896C95.0886 265.896 96.0326 266.136 96.8166 266.616C97.6166 267.096 98.2246 267.776 98.6406 268.656C99.0726 269.52 99.2886 270.536 99.2886 271.704V272.976H90.4806C90.5126 274.432 90.8806 275.544 91.5846 276.312C92.3046 277.064 93.3046 277.44 94.5846 277.44C95.4006 277.44 96.1206 277.368 96.7446 277.224C97.3846 277.064 98.0406 276.84 98.7126 276.552V278.4C98.0566 278.688 97.4086 278.896 96.7686 279.024C96.1286 279.168 95.3686 279.24 94.4886 279.24C93.2726 279.24 92.1926 278.992 91.2486 278.496C90.3206 278 89.5926 277.264 89.0646 276.288C88.5526 275.296 88.2966 274.088 88.2966 272.664C88.2966 271.256 88.5286 270.048 88.9926 269.04C89.4726 268.032 90.1366 267.256 90.9846 266.712C91.8486 266.168 92.8486 265.896 93.9846 265.896ZM93.9606 267.624C92.9526 267.624 92.1526 267.952 91.5606 268.608C90.9846 269.248 90.6406 270.144 90.5286 271.296H97.0806C97.0806 270.56 96.9686 269.92 96.7446 269.376C96.5206 268.832 96.1766 268.408 95.7126 268.104C95.2646 267.784 94.6806 267.624 93.9606 267.624ZM104.675 266.136V271.488H111.659V266.136H113.771V279H111.659V273.264H104.675V279H102.563V266.136H104.675ZM130.541 283.464H128.477V279H117.845V266.136H119.957V277.224H126.605V266.136H128.717V277.248H130.541V283.464ZM135.001 273.984C135.001 274.128 134.993 274.336 134.977 274.608C134.977 274.864 134.969 275.144 134.953 275.448C134.937 275.736 134.921 276.016 134.905 276.288C134.889 276.544 134.873 276.752 134.857 276.912L141.745 266.136H144.337V279H142.369V271.416C142.369 271.16 142.369 270.824 142.369 270.408C142.385 269.992 142.401 269.584 142.417 269.184C142.433 268.768 142.449 268.456 142.465 268.248L135.625 279H133.009V266.136H135.001V273.984ZM149.223 279H146.775L150.447 273.6C149.951 273.472 149.471 273.272 149.007 273C148.543 272.712 148.167 272.32 147.879 271.824C147.591 271.312 147.447 270.68 147.447 269.928C147.447 268.696 147.863 267.76 148.695 267.12C149.527 266.464 150.631 266.136 152.007 266.136H157.767V279H155.655V273.888H152.535L149.223 279ZM149.487 269.952C149.487 270.688 149.759 271.24 150.303 271.608C150.863 271.96 151.639 272.136 152.631 272.136H155.655V267.888H152.223C151.247 267.888 150.543 268.08 150.111 268.464C149.695 268.848 149.487 269.344 149.487 269.952ZM169.72 281.928C170.824 279.656 171.88 277.336 172.888 274.968C173.896 272.6 175.16 269.536 176.68 265.776L169.168 266.016L168.112 268.248L167.008 268.152L167.584 264.312H178.072L178.456 264.768L171.904 282.696L169.72 281.928Z" fill="black"/>
<path d="M61.832 104H59.24L51.488 95.312V104H49.328V86.864H51.488V95.168L59.048 86.864H61.496L54.056 95.192L61.832 104ZM75.0599 97.544C75.0599 98.616 74.9159 99.568 74.6279 100.4C74.3559 101.216 73.9559 101.912 73.4279 102.488C72.9159 103.064 72.2839 103.504 71.5319 103.808C70.7959 104.096 69.9719 104.24 69.0599 104.24C68.2119 104.24 67.4279 104.096 66.7079 103.808C65.9879 103.504 65.3639 103.064 64.8359 102.488C64.3079 101.912 63.8919 101.216 63.5879 100.4C63.2999 99.568 63.1559 98.616 63.1559 97.544C63.1559 96.12 63.3959 94.92 63.8759 93.944C64.3559 92.952 65.0439 92.2 65.9399 91.688C66.8359 91.16 67.8999 90.896 69.1319 90.896C70.2999 90.896 71.3239 91.16 72.2039 91.688C73.0999 92.2 73.7959 92.952 74.2919 93.944C74.8039 94.92 75.0599 96.12 75.0599 97.544ZM65.3399 97.544C65.3399 98.552 65.4679 99.432 65.7239 100.184C65.9959 100.92 66.4119 101.488 66.9719 101.888C67.5319 102.288 68.2439 102.488 69.1079 102.488C69.9719 102.488 70.6839 102.288 71.2439 101.888C71.8039 101.488 72.2119 100.92 72.4679 100.184C72.7399 99.432 72.8759 98.552 72.8759 97.544C72.8759 96.52 72.7399 95.648 72.4679 94.928C72.1959 94.208 71.7799 93.656 71.2199 93.272C70.6759 92.872 69.9639 92.672 69.0839 92.672C67.7719 92.672 66.8199 93.104 66.2279 93.968C65.6359 94.832 65.3399 96.024 65.3399 97.544ZM92.2072 91.136V104H90.3112V95.792C90.3112 95.456 90.3192 95.104 90.3352 94.736C90.3672 94.368 90.3992 94.008 90.4312 93.656H90.3592L86.1592 104H84.3832L80.3032 93.656H80.2312C80.2632 94.008 80.2792 94.368 80.2792 94.736C80.2952 95.104 80.3032 95.48 80.3032 95.864V104H78.4072V91.136H81.2152L85.2712 101.48L89.3992 91.136H92.2072ZM107.185 91.136V104H105.073V92.936H98.4254V104H96.3134V91.136H107.185ZM116.258 90.896C117.362 90.896 118.306 91.136 119.09 91.616C119.89 92.096 120.498 92.776 120.914 93.656C121.346 94.52 121.562 95.536 121.562 96.704V97.976H112.754C112.786 99.432 113.154 100.544 113.858 101.312C114.578 102.064 115.578 102.44 116.858 102.44C117.674 102.44 118.394 102.368 119.018 102.224C119.658 102.064 120.314 101.84 120.986 101.552V103.4C120.33 103.688 119.682 103.896 119.042 104.024C118.402 104.168 117.642 104.24 116.762 104.24C115.546 104.24 114.466 103.992 113.522 103.496C112.594 103 111.866 102.264 111.338 101.288C110.826 100.296 110.57 99.088 110.57 97.664C110.57 96.256 110.802 95.048 111.266 94.04C111.746 93.032 112.41 92.256 113.258 91.712C114.122 91.168 115.122 90.896 116.258 90.896ZM116.234 92.624C115.226 92.624 114.426 92.952 113.834 93.608C113.258 94.248 112.914 95.144 112.802 96.296H119.354C119.354 95.56 119.242 94.92 119.018 94.376C118.794 93.832 118.45 93.408 117.986 93.104C117.538 92.784 116.954 92.624 116.234 92.624ZM133.717 92.912H129.517V104H127.429V92.912H123.277V91.136H133.717V92.912ZM140.985 90.896C142.089 90.896 143.033 91.136 143.817 91.616C144.617 92.096 145.225 92.776 145.641 93.656C146.073 94.52 146.289 95.536 146.289 96.704V97.976H137.481C137.513 99.432 137.881 100.544 138.585 101.312C139.305 102.064 140.305 102.44 141.585 102.44C142.401 102.44 143.121 102.368 143.745 102.224C144.385 102.064 145.041 101.84 145.713 101.552V103.4C145.057 103.688 144.409 103.896 143.769 104.024C143.129 104.168 142.369 104.24 141.489 104.24C140.273 104.24 139.193 103.992 138.249 103.496C137.321 103 136.593 102.264 136.065 101.288C135.553 100.296 135.297 99.088 135.297 97.664C135.297 96.256 135.529 95.048 135.993 94.04C136.473 93.032 137.137 92.256 137.985 91.712C138.849 91.168 139.849 90.896 140.985 90.896ZM140.961 92.624C139.953 92.624 139.153 92.952 138.561 93.608C137.985 94.248 137.641 95.144 137.529 96.296H144.081C144.081 95.56 143.969 94.92 143.745 94.376C143.521 93.832 143.177 93.408 142.713 93.104C142.265 92.784 141.681 92.624 140.961 92.624ZM151.675 91.136V96.488H158.659V91.136H160.771V104H158.659V98.264H151.675V104H149.563V91.136H151.675ZM177.541 108.464H175.477V104H164.845V91.136H166.957V102.224H173.605V91.136H175.717V102.248H177.541V108.464ZM182.001 98.984C182.001 99.128 181.993 99.336 181.977 99.608C181.977 99.864 181.969 100.144 181.953 100.448C181.937 100.736 181.921 101.016 181.905 101.288C181.889 101.544 181.873 101.752 181.857 101.912L188.745 91.136H191.337V104H189.369V96.416C189.369 96.16 189.369 95.824 189.369 95.408C189.385 94.992 189.401 94.584 189.417 94.184C189.433 93.768 189.449 93.456 189.465 93.248L182.625 104H180.009V91.136H182.001V98.984ZM196.223 104H193.775L197.447 98.6C196.951 98.472 196.471 98.272 196.007 98C195.543 97.712 195.167 97.32 194.879 96.824C194.591 96.312 194.447 95.68 194.447 94.928C194.447 93.696 194.863 92.76 195.695 92.12C196.527 91.464 197.631 91.136 199.007 91.136H204.767V104H202.655V98.888H199.535L196.223 104ZM196.487 94.952C196.487 95.688 196.759 96.24 197.303 96.608C197.863 96.96 198.639 97.136 199.631 97.136H202.655V92.888H199.223C198.247 92.888 197.543 93.08 197.111 93.464C196.695 93.848 196.487 94.344 196.487 94.952ZM220.032 85.808C220.928 85.808 221.744 85.984 222.48 86.336C223.216 86.672 223.792 87.152 224.208 87.776C224.64 88.384 224.856 89.08 224.856 89.864C224.856 90.76 224.552 91.688 223.944 92.648C223.336 93.592 222.536 94.312 221.544 94.808C222.872 95.576 223.88 96.304 224.568 96.992C225.272 97.664 225.624 98.456 225.624 99.368C225.624 100.472 225.344 101.4 224.784 102.152C224.224 102.888 223.496 103.44 222.6 103.808C221.72 104.16 220.784 104.336 219.792 104.336C218.816 104.336 217.872 104.168 216.96 103.832C216.064 103.48 215.32 102.952 214.728 102.248C214.152 101.528 213.864 100.656 213.864 99.632C213.864 98.704 214.192 97.808 214.848 96.944C215.504 96.08 216.424 95.36 217.608 94.784C216.712 94.192 216.016 93.544 215.52 92.84C215.024 92.136 214.776 91.296 214.776 90.32C214.776 89.344 215.024 88.52 215.52 87.848C216.032 87.16 216.688 86.648 217.488 86.312C218.288 85.976 219.136 85.808 220.032 85.808ZM219.912 86.864C219.32 86.864 218.76 87 218.232 87.272C217.72 87.528 217.304 87.888 216.984 88.352C216.664 88.816 216.504 89.344 216.504 89.936C216.504 90.752 216.832 91.472 217.488 92.096C218.16 92.72 219.12 93.392 220.368 94.112C221.04 93.936 221.648 93.488 222.192 92.768C222.752 92.032 223.04 91.288 223.056 90.536C223.088 89.464 222.8 88.584 222.192 87.896C221.6 87.208 220.84 86.864 219.912 86.864ZM218.664 95.432C217.88 95.784 217.216 96.296 216.672 96.968C216.144 97.64 215.88 98.36 215.88 99.128C215.88 99.88 216.048 100.568 216.384 101.192C216.736 101.816 217.232 102.312 217.872 102.68C218.512 103.032 219.264 103.208 220.128 103.208C220.752 103.208 221.336 103.072 221.88 102.8C222.44 102.528 222.888 102.152 223.224 101.672C223.56 101.192 223.728 100.656 223.728 100.064C223.728 99.488 223.552 98.976 223.2 98.528C222.864 98.08 222.44 97.688 221.928 97.352C221.416 97 220.72 96.584 219.84 96.104C219.168 95.72 218.776 95.496 218.664 95.432Z" fill="black"/>
<ellipse cx="391.949" cy="277.801" rx="8.35324" ry="8.24149" fill="#FF0000"/>
<ellipse cx="402.159" cy="244.835" rx="8.35324" ry="8.24149" fill="#FF0000"/>
<ellipse cx="403.087" cy="309.851" rx="8.35324" ry="8.24149" fill="#FF0000"/>
<ellipse cx="435.572" cy="320.84" rx="8.35324" ry="8.24149" fill="#FF0000"/>
<ellipse cx="500.542" cy="341.901" rx="8.35324" ry="8.24149" fill="#FF0000"/>
<ellipse cx="527.458" cy="276.885" rx="8.35324" ry="8.24149" fill="#FF0000"/>
<ellipse cx="533.026" cy="180.734" rx="8.35324" ry="8.24149" fill="#FF0000"/>
<ellipse cx="434.644" cy="232.015" rx="8.35324" ry="8.24149" fill="#FF0000"/>
<line y1="-1.5" x2="97.1068" y2="-1.5" transform="matrix(0.0286739 -0.999589 0.99961 0.0279124 530.242 277.801)" stroke="#FF0000" stroke-width="3"/>
<line y1="-1.5" x2="70.7277" y2="-1.5" transform="matrix(-0.393681 0.919247 -0.923006 -0.384785 527.458 276.885)" stroke="#FF0000" stroke-width="3"/>
<line y1="-1.5" x2="68.2982" y2="-1.5" transform="matrix(0.951264 0.308377 -0.315966 0.948771 434.644 320.84)" stroke="#FF0000" stroke-width="3"/>
<line y1="-1.5" x2="71.0456" y2="-1.5" transform="matrix(0.926536 0.376207 -0.384973 0.922928 369.71 341.815)" stroke="#0500FF" stroke-width="3"/>
<line y1="-1.5" x2="106.513" y2="-1.5" transform="matrix(0.392125 0.919912 -0.923644 0.383252 533.026 179.818)" stroke="#0500FF" stroke-width="3"/>
<line y1="-1.5" x2="111.371" y2="-1.5" transform="matrix(0.883375 -0.468667 0.478563 0.878053 434.644 232.93)" stroke="#0500FF" stroke-width="3"/>
<path d="M371.531 330.913L381.98 348.769H361.081L371.531 330.913Z" fill="#0500FF"/>
<path d="M435.572 355.637L446.021 373.494H425.122L435.572 355.637Z" fill="#0500FF"/>
<path d="M296.351 264.98L306.8 282.837H285.902L296.351 264.98Z" fill="#0500FF"/>
<path d="M371.531 201.796L381.98 219.652H361.081L371.531 201.796Z" fill="#0500FF"/>
<path d="M434.644 220.11L445.093 237.967H424.195L434.644 220.11Z" fill="#0500FF"/>
<path d="M533.026 168.83L543.476 186.686H522.577L533.026 168.83Z" fill="#0500FF"/>
<path d="M562.727 395.929L573.176 413.785H552.278L562.727 395.929Z" fill="#0500FF"/>
<path d="M574.792 265.896L585.242 283.753H564.343L574.792 265.896Z" fill="#0500FF"/>
<line y1="-1.5" x2="67.4159" y2="-1.5" transform="matrix(0.949946 0.312413 -0.320079 0.947391 371.53 211.869)" stroke="#0500FF" stroke-width="3"/>
<line y1="-1.5" x2="99.3932" y2="-1.5" transform="matrix(-0.756381 0.654131 -0.664172 -0.74758 371.53 211.869)" stroke="#0500FF" stroke-width="3"/>
<line y1="-1.5" x2="99.3932" y2="-1.5" transform="matrix(-0.756381 -0.654131 0.664172 -0.74758 371.53 341.901)" stroke="#0500FF" stroke-width="3"/>
<line y1="-1.5" x2="132.333" y2="-1.5" transform="matrix(-0.0841636 0.996452 -0.996637 -0.081942 573.864 276.885)" stroke="#0500FF" stroke-width="3"/>
<line y1="-1.5" x2="133.665" y2="-1.5" transform="matrix(0.951293 0.308288 -0.315876 0.948801 435.572 367.541)" stroke="#0500FF" stroke-width="3"/>
<rect x="241.591" y="268.643" width="16.7065" height="16.483" fill="#03710E"/>
<rect x="267.579" y="429.81" width="16.7065" height="16.483" fill="#03710E"/>
<rect x="327.908" y="170.661" width="16.7065" height="16.483" fill="#03710E"/>
<rect x="427.219" y="87.3306" width="16.7065" height="16.483" fill="#03710E"/>
<rect x="589.643" y="108.392" width="16.7065" height="16.483" fill="#03710E"/>
<rect x="611.918" y="268.643" width="16.7065" height="16.483" fill="#03710E"/>
<rect x="590.571" y="429.81" width="16.7065" height="16.483" fill="#03710E"/>
<rect x="426.291" y="447.209" width="16.7065" height="16.483" fill="#03710E"/>
<line y1="-1.5" x2="129.64" y2="-1.5" transform="matrix(0.766048 -0.642783 0.652909 0.757436 336.261 178.903)" stroke="#03710E" stroke-width="3"/>
<line y1="-1.5" x2="164.704" y2="-1.5" transform="matrix(-0.99179 -0.127875 0.131307 -0.991342 598.924 116.634)" stroke="#03710E" stroke-width="3"/>
<line y1="-1.5" x2="161.667" y2="-1.5" transform="matrix(0.132044 0.991244 -0.991697 0.128594 598.924 116.634)" stroke="#03710E" stroke-width="3"/>
<line y1="-1.5" x2="162.575" y2="-1.5" transform="matrix(0.131307 -0.991342 0.99179 0.127875 598.924 438.052)" stroke="#03710E" stroke-width="3"/>
<line y1="-1.5" x2="165.199" y2="-1.5" transform="matrix(-0.994438 0.10532 -0.108162 -0.994133 598.924 438.052)" stroke="#03710E" stroke-width="3"/>
<line x1="284.187" y1="437.512" x2="427.187" y2="455.512" stroke="#03710E" stroke-width="3"/>
<line y1="-1.5" x2="163.249" y2="-1.5" transform="matrix(-0.159192 -0.987248 0.987904 -0.155064 275.932 438.052)" stroke="#03710E" stroke-width="3"/>
<line y1="-1.5" x2="130.58" y2="-1.5" transform="matrix(-0.661027 0.750362 -0.759111 -0.650961 336.261 178.903)" stroke="#03710E" stroke-width="3"/>
</svg>
